<svg version="1.0" xmlns="http://www.w3.org/2000/svg" width="300.000000pt" height="300.000000pt"
    viewBox="0 0 300.000000 300.000000" preserveAspectRatio="xMidYMid meet">
    <g transform="translate(0.000000,300.000000) scale(0.100000,-0.100000)" fill="#000000" stroke="none">
        <path d="M2026 2908 c-41 -152 -41 -160 -10 -198 l28 -33 -25 9 c-43 15 -112
5 -176 -27 -35 -17 -63 -33 -63 -37 0 -4 21 -16 48 -26 26 -11 58 -28 71 -38
13 -10 31 -18 40 -18 10 1 6 6 -11 16 -16 8 -28 18 -28 22 0 4 31 6 70 4 99
-5 93 -16 -31 -56 -136 -44 -264 -69 -438 -85 -104 -10 -104 -10 -139 17 -46
35 -150 43 -218 17 -40 -15 -54 -16 -107 -5 -89 17 -226 69 -357 135 l-115 59
42 7 c63 12 97 33 138 89 20 27 41 50 46 50 15 0 10 27 -7 34 -9 3 -39 9 -67
12 -67 7 -110 -18 -138 -81 l-20 -45 -37 19 c-20 11 -84 35 -142 54 -58 19
-144 51 -192 71 -48 20 -96 36 -105 35 -13 0 -11 -3 7 -11 25 -11 306 -146
368 -177 19 -9 51 -35 73 -58 62 -67 303 -181 462 -219 l75 -17 -19 -41 c-10
-23 -19 -58 -19 -78 0 -36 0 -37 -31 -28 -28 8 -196 38 -314 56 -164 25 -360
62 -445 84 -71 19 -217 50 -232 50 -5 0 -8 -8 -8 -19 0 -14 12 -21 53 -29 253
-53 430 -86 652 -122 143 -23 266 -44 273 -46 16 -5 -8 -49 -78 -139 -67 -87
-73 -101 -67 -157 4 -30 2 -46 -3 -43 -6 4 -10 19 -10 34 0 51 -31 132 -64
168 -27 30 -41 36 -84 41 -81 7 -90 0 -52 -48 17 -22 36 -55 41 -72 7 -26 19
-38 59 -57 28 -13 53 -28 56 -33 6 -10 -48 1 -56 12 -17 22 -60 40 -95 40 -45
0 -108 -29 -113 -53 -4 -20 81 -61 113 -54 31 5 31 4 -2 -40 -26 -34 -26 -35
-5 -24 12 6 22 16 22 22 0 5 17 28 39 50 35 37 42 40 75 34 20 -4 39 -11 42
-17 3 -5 -5 -6 -19 -3 -53 14 -111 -72 -138 -202 -11 -54 -11 -69 4 -116 9
-29 23 -61 30 -71 13 -17 15 -16 33 15 65 111 74 171 38 241 -16 30 -18 58 -5
58 5 0 16 -24 25 -52 9 -29 13 -37 10 -18 -11 58 -10 103 4 107 8 3 12 -7 12
-31 0 -19 5 -38 11 -42 6 -3 9 -14 6 -24 -2 -10 -1 -24 4 -31 6 -10 9 -3 10
21 0 19 4 44 9 55 6 15 9 7 9 -30 1 -76 39 -363 56 -422 22 -76 20 -96 -15
-116 -21 -13 -30 -26 -30 -44 0 -15 -5 -41 -12 -59 -9 -27 -9 -37 5 -58 9 -14
17 -41 17 -60 0 -19 6 -40 13 -45 60 -50 78 -61 101 -61 22 0 26 -5 26 -27 1
-94 57 -207 159 -315 79 -85 117 -107 241 -140 118 -31 268 -10 402 58 53 27
281 233 320 290 35 51 99 189 132 286 47 138 34 299 -34 403 -41 63 -49 82
-28 69 7 -4 1 7 -11 25 -24 34 -69 203 -48 182 25 -25 21 -7 -14 68 -32 67
-45 84 -83 106 -51 30 -163 42 -228 24 -52 -13 -45 -19 12 -10 70 10 143 2
170 -20 20 -16 21 -18 5 -13 -11 4 -4 -4 15 -17 46 -32 71 -86 76 -162 4 -67
52 -196 105 -278 43 -68 59 -175 43 -293 -5 -31 -10 -43 -15 -34 -6 9 -9 2 -9
-18 0 -18 -6 -47 -14 -65 -11 -27 -15 -30 -19 -13 -2 10 -5 0 -6 -24 -2 -68
-59 -176 -136 -254 -36 -37 -65 -65 -65 -62 0 26 55 150 73 164 12 10 31 33
41 51 16 29 12 26 -27 -16 -30 -32 -55 -73 -71 -117 -30 -79 -80 -151 -135
-196 -48 -38 -50 -36 -16 14 14 20 25 42 25 48 0 6 -16 -12 -35 -41 -36 -54
-88 -98 -104 -89 -5 4 -26 -3 -46 -15 -70 -42 -211 -41 -329 2 -80 29 -91 36
-160 110 -84 89 -133 177 -141 253 -4 28 -8 53 -11 58 -10 16 29 7 69 -16 23
-13 78 -35 122 -47 74 -21 102 -23 360 -25 227 -2 286 0 314 12 20 8 49 16 65
18 31 4 116 83 116 107 0 7 -16 -6 -36 -30 -20 -23 -39 -40 -42 -37 -3 3 2 14
11 24 18 19 50 92 44 98 -2 2 -19 -24 -38 -59 -19 -34 -39 -62 -44 -63 -6 0
-26 -8 -46 -17 -30 -13 -81 -16 -300 -17 -276 -2 -360 6 -454 41 -30 11 -55
21 -55 23 0 1 24 2 54 2 39 1 65 8 97 28 24 14 39 26 34 26 -6 0 -20 -7 -32
-15 -27 -19 -74 -22 -215 -12 -104 8 -120 12 -143 33 -35 33 -31 67 10 74 20
4 26 8 18 13 -7 5 -18 5 -23 2 -16 -10 -48 4 -55 24 -11 35 5 51 49 51 30 0
37 3 26 10 -8 5 -25 10 -37 10 -28 0 -29 10 -2 44 14 17 43 33 91 47 61 19 87
21 192 17 66 -3 135 -11 151 -18 18 -7 123 -14 265 -19 209 -6 240 -9 280 -28
49 -23 67 -22 32 3 -30 20 -28 36 3 28 20 -5 24 -3 19 9 -3 10 3 20 18 27 13
7 33 22 46 33 13 12 22 16 22 8 0 -7 5 -9 10 -6 6 3 10 14 10 24 0 10 7 25 17
32 15 13 16 11 9 -16 -4 -16 -15 -38 -23 -47 -9 -10 -13 -18 -10 -18 20 0 47
48 47 84 0 23 5 48 11 56 7 11 9 3 7 -33 -3 -40 -1 -45 9 -30 7 9 13 27 13 39
0 13 5 26 10 29 6 3 9 27 8 53 l-1 47 -6 -45 c-6 -43 -7 -42 -16 35 l-9 80 -7
-77 c-5 -42 -16 -92 -26 -110 l-18 -33 -6 110 c-6 103 -28 197 -50 211 -16 10
-9 24 9 17 39 -13 -24 37 -89 70 -54 28 -63 36 -50 45 12 8 5 11 -34 11 l-50
1 52 -27 c28 -15 50 -30 48 -33 -6 -9 54 -42 64 -36 5 4 8 -2 7 -11 -2 -10 7
-31 20 -48 32 -43 53 -126 58 -235 3 -52 2 -86 -1 -75 -8 33 -20 38 -15 7 3
-22 -3 -38 -25 -62 -24 -27 -38 -33 -82 -38 -42 -4 -58 -1 -79 15 -45 32 -52
35 -46 19 3 -8 13 -17 22 -19 10 -2 -30 -4 -88 -5 -58 -1 -132 -4 -165 -7 -96
-10 -214 37 -320 126 -11 9 -37 19 -59 22 -35 6 -37 5 -20 -8 11 -8 22 -15 26
-15 3 0 44 -23 90 -52 46 -28 103 -59 128 -69 37 -15 40 -18 19 -19 -28 0
-237 108 -338 176 -61 41 -62 43 -35 46 26 4 27 5 9 12 -40 15 -48 22 -52 45
-2 17 1 22 12 17 8 -3 15 -2 15 3 0 5 -8 11 -19 14 -16 4 -17 10 -9 63 5 33
11 70 13 84 1 14 15 49 29 77 14 29 26 57 26 62 0 13 65 68 90 76 12 4 20 9
17 11 -2 3 -17 0 -33 -6 l-29 -11 23 24 c12 13 19 27 15 31 -4 4 1 4 12 0 14
-6 17 -4 12 9 -4 11 1 18 14 22 10 4 19 10 19 13 0 8 25 21 114 61 39 18 60
21 105 17 57 -6 59 -3 6 9 l-30 8 30 8 c17 5 44 6 60 3 29 -6 29 -5 10 10 -19
15 -17 16 25 10 25 -4 53 -11 62 -15 24 -13 61 -11 53 1 -4 6 -25 18 -47 27
-28 11 -36 18 -26 24 21 14 1 10 -38 -6 -32 -13 -35 -13 -30 0 4 11 -7 8 -42
-9 -26 -14 -74 -33 -107 -42 -77 -24 -170 -76 -218 -122 -49 -48 -137 -175
-153 -221 -7 -20 -13 -63 -13 -96 -1 -33 -5 -86 -9 -117 -5 -31 -5 -55 0 -52
4 3 8 -3 8 -12 0 -17 29 -66 73 -124 19 -24 19 -24 13 -2 -10 29 -1 28 44 -8
20 -16 40 -27 43 -24 3 3 29 -7 58 -23 l54 -28 -115 -6 c-63 -4 -128 -12 -143
-18 -16 -6 -32 -11 -37 -11 -30 0 -107 622 -87 702 4 14 30 54 58 89 28 35 60
82 71 104 11 22 22 42 24 44 3 3 27 -19 54 -49 l49 -53 71 7 c77 7 131 29 169
70 19 20 37 26 92 32 49 5 69 11 69 20 0 8 5 14 10 14 6 0 10 -5 10 -11 0 -5
4 -8 9 -5 5 3 11 -1 15 -9 7 -19 47 -19 93 0 20 8 37 14 39 13 1 -2 0 -24 -3
-51 -4 -33 -9 -45 -17 -39 -6 5 -20 12 -30 16 -20 7 -20 7 -1 -16 47 -56 65
-68 100 -68 19 0 35 -4 35 -10 0 -5 7 -10 15 -10 16 0 96 -37 105 -49 3 -3 21
-15 40 -25 19 -10 46 -29 60 -41 31 -28 70 -48 77 -41 11 11 -91 106 -141 130
-50 24 -50 25 -18 25 57 1 34 21 -25 22 -32 0 -52 3 -45 6 25 10 1 22 -36 17
-28 -3 -32 -2 -17 5 16 8 12 10 -22 10 l-43 1 0 59 c0 68 -10 62 130 80 196
26 299 22 416 -15 73 -23 84 -56 43 -136 -10 -20 -19 -41 -19 -45 0 -17 40 53
47 82 l7 30 6 -30 c9 -47 1 -64 -54 -107 l-51 -41 -6 29 c-4 16 -7 52 -8 79
-1 43 4 56 31 90 29 35 30 38 8 24 -33 -21 -58 -58 -61 -89 -4 -41 12 -170 21
-170 5 0 40 26 77 59 l68 59 29 -70 c19 -47 32 -66 38 -60 7 7 7 21 -1 43 -6
17 -11 44 -12 58 0 23 -1 24 -8 6 -7 -18 -9 -18 -23 10 -9 17 -21 49 -28 73
-6 24 -14 50 -17 58 -8 22 26 17 71 -9 21 -13 51 -43 67 -67 27 -40 29 -50 29
-138 0 -80 -2 -93 -15 -88 -26 9 -16 -10 10 -22 14 -7 28 -12 31 -12 3 0 4 49
2 109 -3 105 -4 111 -36 156 -24 34 -31 52 -26 71 4 17 0 31 -12 45 -16 18
-26 20 -66 15 -27 -4 -48 -5 -48 -2 0 2 26 14 57 26 55 20 59 21 68 4 35 -60
113 -131 182 -165 40 -20 76 -32 79 -27 10 16 -35 144 -68 194 -50 72 -115 81
-218 29 -54 -27 -64 -30 -55 -15 3 6 2 10 -4 10 -15 0 -23 -18 -9 -22 7 -3 5
-7 -6 -11 -10 -4 -15 -3 -11 3 8 13 -1 13 -25 -2 -15 -10 -36 -8 -107 10 -109
28 -234 30 -393 8 -143 -20 -132 -20 -129 7 4 36 -10 67 -32 67 -19 0 -19 -1
-5 -16 37 -36 6 -87 -66 -109 l-48 -14 0 39 c0 30 -6 43 -26 59 -28 22 -74 28
-74 11 0 -6 6 -10 13 -8 28 5 57 -14 57 -38 0 -29 -24 -32 -52 -7 -18 16 -18
16 -12 0 5 -14 -1 -17 -39 -17 -44 0 -46 1 -45 29 1 24 6 31 27 34 l26 4 -27
2 c-42 2 -37 31 5 31 75 0 281 33 407 66 89 22 174 53 250 89 79 37 141 59
200 70 112 21 159 45 223 116 30 32 62 59 72 59 16 0 13 -7 -16 -37 l-34 -38
41 38 c32 30 48 38 70 35 16 -2 28 -8 27 -14 -1 -6 11 -9 30 -7 29 3 30 2 13
-9 -10 -7 -67 -48 -125 -92 -58 -43 -123 -87 -144 -98 -22 -11 -37 -22 -34
-25 10 -9 100 46 177 107 41 33 78 60 82 60 4 0 -14 -21 -40 -46 -32 -31 -37
-40 -17 -26 17 11 46 37 65 57 59 62 66 63 116 14 24 -24 44 -47 44 -51 0 -4
-19 -8 -43 -8 -23 0 -54 -8 -67 -17 l-25 -16 24 26 c14 15 32 27 42 27 24 0
33 16 13 24 -9 4 -19 4 -22 1 -3 -3 -1 -5 4 -5 11 0 -26 -22 -91 -53 -27 -13
-56 -32 -64 -41 -8 -10 -42 -31 -75 -48 -93 -47 -110 -59 -94 -70 9 -7 8 -8
-6 -4 -12 4 -30 -4 -52 -24 -19 -16 -47 -33 -62 -37 -23 -5 -63 -33 -48 -33 3
0 36 11 73 25 67 25 117 61 108 76 -6 8 125 83 132 75 3 -2 -52 -61 -121 -130
-70 -69 -124 -126 -120 -126 11 0 68 42 114 84 l45 41 -40 -45 -40 -46 45 47
c25 26 77 82 115 125 77 86 137 120 224 131 28 3 51 9 51 14 0 4 -26 35 -57
67 -57 59 -101 82 -160 82 l-22 0 24 55 c31 69 24 72 -10 5 -24 -47 -48 -70
-61 -57 -3 3 8 26 26 52 35 51 33 71 -3 37 -13 -12 -29 -22 -35 -22 -7 0 -18
-21 -24 -46 -14 -51 -62 -112 -111 -142 -19 -12 -74 -26 -141 -36 -69 -10
-116 -22 -128 -33 -26 -23 -33 -10 -19 38 16 52 7 63 -10 12 l-13 -38 -12 40
c-9 27 -13 33 -13 17 -1 -12 6 -38 13 -57 8 -19 12 -35 8 -35 -11 0 -62 81
-62 98 0 7 17 28 37 47 21 19 34 37 30 41 -3 4 -13 2 -20 -5 -11 -9 -14 -5
-15 18 -1 30 -34 105 -52 116 -6 3 -12 0 -14 -7z m30 -143 c-10 -66 -11 -67
-28 -45 -21 26 -23 53 -7 101 21 66 21 66 33 37 8 -20 9 -45 2 -93z m-1299 67
c21 -7 19 -11 -35 -69 -43 -46 -68 -64 -101 -73 -23 -6 -45 -9 -48 -7 -12 13
22 94 52 124 34 34 74 41 132 25z m-257 -103 c27 -17 50 -35 50 -40 0 -12 -10
-6 -68 38 -55 41 -47 42 18 2z m1523 -60 c27 -14 77 -60 77 -71 0 -15 -68 0
-97 20 -15 11 -39 23 -53 26 -18 5 -14 1 12 -14 20 -11 40 -24 43 -30 7 -11
-18 -14 -29 -3 -4 4 -27 6 -51 4 -25 -1 -62 3 -82 10 l-36 12 29 15 c34 19
109 40 142 41 13 1 33 -4 45 -10z m-680 -249 c50 -56 31 -180 -35 -220 -34
-20 -108 -28 -108 -10 0 5 11 44 25 87 15 48 19 71 10 59 -16 -21 -40 -84 -49
-128 -5 -19 -13 -28 -27 -28 -31 0 -34 28 -13 111 11 43 16 76 12 73 -9 -6
-36 -97 -40 -139 l-3 -30 -23 35 c-25 40 -28 95 -8 145 25 58 91 87 181 80 40
-4 55 -10 78 -35z m1318 -86 c26 -23 81 -151 75 -172 -6 -18 -9 -18 -54 5 -28
14 -72 52 -110 95 l-63 72 28 13 c33 15 101 8 124 -13z m-1146 -53 c-12 -11
-115 -21 -115 -11 0 15 16 20 69 20 32 0 51 -4 46 -9z m975 -31 c0 -11 -7 -20
-16 -20 -8 0 -13 4 -10 9 4 5 -6 14 -21 19 -28 10 -27 10 10 11 31 1 37 -2 37
-19z m-1762 -128 c24 -15 57 -70 49 -79 -3 -3 -12 6 -21 19 -9 13 -30 35 -48
48 -21 14 -9 -2 30 -42 42 -45 62 -74 62 -91 l0 -26 -56 34 c-47 29 -60 43
-85 95 -16 34 -29 63 -29 64 0 8 79 -10 98 -22z m-66 -142 c56 -16 61 -34 7
-28 -44 6 -44 6 -14 -8 19 -8 24 -13 12 -14 -9 0 -26 -5 -37 -12 -15 -10 -26
-9 -55 5 -43 21 -41 36 6 53 43 16 38 16 81 4z m113 -80 c3 -5 -1 -10 -10 -10
-19 0 -77 -88 -68 -103 4 -6 10 -2 14 9 6 16 9 14 23 -18 9 -21 16 -53 16 -72
0 -42 -49 -158 -64 -153 -6 2 -16 19 -23 38 -13 38 -17 103 -5 96 4 -3 7 17 8
43 1 50 29 117 67 158 23 24 33 27 42 12z m56 -21 c-2 -8 -6 -26 -9 -41 -2
-16 -8 -28 -13 -28 -11 0 -12 73 -2 84 11 11 28 0 24 -15z m183 -50 c-4 -7
-13 -30 -21 -53 l-13 -41 5 45 c3 24 11 48 18 52 17 11 19 10 11 -3z m841
-539 c26 -11 -70 -11 -140 0 -46 7 -43 7 35 8 47 0 94 -3 105 -8z" />
        <path d="M627 2749 l-42 -41 50 28 c65 35 70 40 50 48 -11 4 -30 -8 -58 -35z" />
        <path d="M1292 2288 c-25 -51 -40 -108 -25 -93 13 12 55 126 49 132 -2 2 -13
-15 -24 -39z" />
        <path d="M2618 2253 c8 -3 22 -19 33 -37 10 -17 19 -25 19 -17 0 10 11 4 32
-15 l31 -29 -28 38 c-26 35 -72 68 -92 66 -4 0 -2 -3 5 -6z" />
        <path d="M716 1713 c2 -48 1 -52 -5 -23 l-8 35 -2 -36 c-1 -25 4 -39 14 -43
12 -4 15 4 15 47 0 29 -4 58 -9 65 -4 7 -7 -12 -5 -45z" />
        <path d="M121 2836 c25 -6 68 -24 95 -40 27 -15 40 -20 29 -11 -32 27 -118 65
-145 64 -17 0 -10 -4 21 -13z" />
        <path d="M120 2797 c61 -18 101 -40 190 -102 82 -57 151 -95 173 -95 8 0 47
-14 87 -30 40 -17 75 -29 77 -27 5 6 -144 67 -162 67 -26 0 -106 45 -170 94
-70 55 -144 92 -200 100 l-40 6 45 -13z" />
        <path d="M2179 2754 c15 -19 19 -34 14 -56 -4 -22 -3 -29 5 -24 20 12 15 84
-7 96 -31 16 -34 12 -12 -16z" />
        <path d="M0 2763 c0 -5 29 -9 65 -10 83 -2 156 -35 233 -105 31 -29 48 -43 38
-30 -23 27 -13 29 22 3 48 -33 434 -152 448 -138 5 5 -57 23 -109 33 -28 5
-35 9 -25 16 8 6 5 7 -12 3 -47 -11 -244 68 -351 141 -53 36 -114 72 -135 79
-41 15 -174 20 -174 8z" />
        <path d="M10 2731 c8 -6 29 -11 47 -11 44 0 103 -28 217 -104 78 -51 105 -64
125 -60 21 5 23 3 11 -6 -12 -9 -7 -10 20 -5 21 4 30 3 23 -2 -8 -6 1 -9 25
-9 20 0 51 -3 67 -7 22 -5 25 -5 10 2 -11 5 -55 17 -97 27 -43 9 -75 20 -73
24 3 5 -3 6 -13 3 -11 -2 -43 14 -82 43 -85 62 -181 106 -244 111 -38 3 -47 2
-36 -6z" />
        <path d="M350 2709 c32 -28 116 -67 161 -75 20 -3 6 5 -33 19 -36 14 -79 33
-95 44 -44 31 -61 37 -33 12z" />
        <path d="M0 2692 c0 -5 26 -13 58 -17 32 -3 65 -11 73 -15 9 -6 0 -8 -26 -4
-37 4 -38 3 -15 -7 14 -7 87 -43 162 -81 130 -65 145 -69 265 -88 182 -28 192
-23 23 11 -143 29 -147 31 -295 113 -101 57 -165 86 -197 91 -31 5 -48 4 -48
-3z" />
        <path d="M2255 2578 c-11 -6 -54 -37 -96 -69 -87 -68 -122 -82 -242 -99 -48
-7 -86 -14 -84 -17 9 -9 194 20 232 37 31 13 147 98 214 156 8 8 -4 3 -24 -8z" />
        <path d="M2388 2560 c-17 -16 -40 -30 -51 -30 -11 0 -17 -3 -14 -6 7 -8 -57
-59 -153 -121 -35 -24 -60 -43 -56 -43 13 0 105 58 166 105 30 23 73 52 95 63
22 12 33 21 25 22 -10 0 -7 7 10 20 14 11 22 20 17 20 -4 0 -21 -13 -39 -30z" />
        <path d="M0 2571 c0 -4 33 -11 73 -13 39 -3 92 -13 117 -22 25 -9 52 -19 61
-21 15 -3 35 -13 125 -63 13 -7 87 -17 166 -22 194 -13 239 -19 336 -41 45
-10 97 -19 115 -18 29 1 -56 21 -271 64 -41 8 -99 15 -130 15 -110 1 -194 19
-277 60 -44 22 -92 43 -105 45 -93 20 -128 25 -166 25 -24 0 -44 -4 -44 -9z" />
        <path d="M2310 2455 c-30 -19 -52 -35 -49 -35 17 0 77 31 93 49 26 28 20 26
-44 -14z" />
        <path d="M737 2470 c13 -5 46 -12 75 -14 44 -5 47 -4 18 3 -61 15 -118 22 -93
11z" />
        <path d="M825 2429 c16 -5 57 -11 90 -13 60 -5 59 -5 -15 9 -85 15 -119 18
-75 4z" />
        <path d="M1780 2415 c-25 -7 -38 -13 -30 -14 8 0 38 6 65 13 28 8 41 14 30 14
-11 0 -40 -6 -65 -13z" />
        <path d="M675 2385 c28 -8 80 -24 118 -36 37 -11 100 -22 140 -24 l72 -4 -85
13 c-47 7 -105 22 -130 33 -25 12 -72 24 -105 27 l-60 6 50 -15z" />
        <path d="M1619 2343 c3 -48 5 -54 12 -34 9 24 2 91 -10 91 -3 0 -4 -26 -2 -57z" />
        <path d="M1665 2356 c-4 -26 -5 -50 -1 -53 3 -4 6 9 7 28 0 28 2 30 9 14 8
-18 9 -18 9 5 0 14 -3 31 -8 39 -7 10 -11 1 -16 -33z" />
        <path d="M1830 2370 l-75 -6 75 -1 c41 -1 113 2 160 6 l85 8 -85 0 c-47 0
-119 -3 -160 -7z" />
        <path d="M2304 2213 c-15 -23 -30 -103 -19 -103 5 0 55 88 55 97 0 4 -10 -7
-22 -26 -12 -19 -24 -29 -26 -22 -2 6 8 27 23 46 14 19 22 35 17 35 -5 0 -18
-12 -28 -27z" />
        <path d="M2455 2130 c2 -25 11 -65 18 -90 l14 -45 12 28 c12 31 0 100 -20 113
-8 4 -8 1 -1 -12 5 -11 11 -30 12 -44 4 -51 -3 -43 -21 25 -16 58 -18 62 -14
25z" />
        <path d="M1246 2021 c-5 -8 19 -20 54 -26 8 -2 24 -6 34 -11 14 -5 17 -4 12 4
-12 20 10 13 29 -8 10 -11 20 -18 22 -16 3 2 20 -11 39 -30 19 -19 34 -29 34
-22 -1 14 -30 57 -30 44 0 -5 -9 2 -20 15 -10 13 -19 19 -20 12 0 -7 -12 0
-27 15 -15 14 -28 21 -30 15 -4 -11 -58 -4 -81 11 -6 3 -13 2 -16 -3z" />
        <path d="M1475 1954 c3 -10 10 -41 16 -67 6 -27 12 -47 12 -45 1 2 20 23 42
48 22 25 31 37 20 27 -18 -16 -20 -16 -32 5 -10 20 -12 20 -13 5 0 -24 -24
-16 -28 9 -2 10 -8 23 -13 28 -5 6 -7 2 -4 -10z" />
        <path d="M1650 1925 c-30 -17 -44 -19 -35 -5 11 18 -11 11 -29 -9 -17 -19 -17
-19 6 -14 21 6 22 5 8 -12 -12 -16 -10 -15 17 3 17 12 36 22 42 22 6 0 11 4
11 9 0 5 8 12 18 14 12 3 12 5 2 5 -8 1 -26 -5 -40 -13z" />
        <path d="M1855 1910 c3 -5 25 -10 47 -10 51 0 47 5 -10 14 -29 4 -41 3 -37 -4z" />
        <path d="M1669 1894 c-22 -11 -22 -13 -6 -20 10 -3 23 -2 30 5 14 14 47 15 47
1 0 -6 35 -10 85 -10 87 0 141 -14 177 -47 10 -9 18 -11 18 -5 0 6 -17 21 -37
33 -29 18 -55 24 -127 27 -50 2 -100 9 -111 15 -28 16 -48 16 -76 1z" />
        <path d="M1210 1828 c-64 -25 -180 -83 -180 -90 0 -17 35 -7 90 27 59 36 96
49 49 17 -14 -9 -40 -29 -58 -44 l-31 -27 41 -42 c40 -41 42 -42 96 -36 30 3
66 13 80 22 14 10 22 12 18 5 -12 -19 -87 -50 -123 -50 -18 0 -44 7 -57 16
-13 9 -30 12 -36 8 -8 -4 -9 -3 -5 4 9 16 -34 25 -63 14 -20 -7 -14 -11 50
-30 41 -12 85 -22 99 -23 l25 -1 -26 -8 c-15 -4 -45 -4 -68 0 -23 4 -41 4 -41
0 0 -5 18 -11 39 -15 43 -7 112 10 179 44 52 27 64 48 52 92 -24 84 -81 136
-130 117z m58 -34 c26 -18 52 -65 51 -91 0 -11 -5 -6 -11 12 -15 41 -46 74
-82 84 -29 9 -29 9 -6 10 14 1 36 -6 48 -15z m-80 -30 c-35 -19 -35 -25 4 -64
35 -36 53 -33 75 11 12 22 13 22 13 3 0 -32 -22 -54 -62 -60 -30 -5 -41 -2
-62 19 -17 17 -23 32 -19 46 6 23 48 61 67 61 6 -1 -1 -8 -16 -16z" />
        <path d="M1997 1781 c22 -16 49 -42 61 -57 12 -16 22 -23 22 -16 0 18 -87 102
-106 102 -11 0 -2 -11 23 -29z" />
        <path d="M1710 1671 c-52 -29 -93 -75 -86 -98 9 -29 95 -112 140 -135 27 -14
52 -18 80 -16 27 3 54 -1 78 -14 39 -19 68 -23 68 -10 0 16 -101 52 -144 52
-54 0 -86 11 -132 47 -66 52 -73 95 -23 138 l23 20 -22 -29 c-31 -40 -28 -67
13 -106 30 -29 43 -34 78 -34 42 1 117 23 117 35 0 4 -7 12 -15 19 -8 7 -15
18 -15 25 0 7 -11 30 -25 51 -23 34 -23 36 -3 13 13 -15 52 -63 88 -107 36
-45 68 -81 73 -82 4 0 7 10 7 23 0 15 -31 54 -98 120 -110 110 -139 122 -202
88z m107 -53 c40 -43 30 -103 -17 -113 -58 -13 -133 52 -110 95 6 12 14 19 17
17 2 -3 0 -14 -5 -24 -13 -25 -5 -41 28 -58 32 -16 86 -21 61 -6 -19 12 -3 34
20 28 30 -8 24 37 -7 62 -15 12 -22 21 -17 21 5 0 19 -10 30 -22z m-34 -22 c7
-16 -1 -26 -20 -26 -7 0 -13 9 -13 20 0 23 25 27 33 6z" />
        <path d="M1365 1615 c-44 -43 -25 -83 52 -111 86 -30 147 -11 145 46 -1 42
-15 55 -81 74 -73 21 -88 20 -116 -9z m85 -31 c8 -1 27 -5 41 -8 41 -9 50 -66
10 -66 -13 0 -13 2 -2 9 23 15 5 41 -29 41 -17 0 -39 9 -52 22 -19 19 -19 21
-2 14 10 -5 26 -10 34 -12z" />
        <path d="M1270 1565 c0 -13 95 -127 121 -146 42 -29 105 -35 167 -15 46 16 91
50 80 61 -3 3 -19 0 -37 -6 -70 -25 -223 16 -287 77 -36 34 -44 39 -44 29z
m160 -119 l45 -15 -36 0 c-19 -1 -44 6 -55 14 -24 18 -11 18 46 1z" />
        <path d="M1043 1548 c20 -7 35 -7 50 0 18 9 14 11 -28 11 -46 -1 -48 -1 -22
-11z" />
        <path d="M410 1503 c0 -3 20 -28 45 -54 56 -60 60 -94 12 -124 -31 -20 -96
-129 -84 -141 3 -3 17 16 31 44 25 49 77 102 100 102 24 0 26 -14 4 -28 -21
-12 -9 -11 25 3 7 3 25 -8 41 -24 l28 -29 -48 -26 c-27 -14 -60 -34 -74 -43
-14 -9 -5 4 20 31 25 27 36 44 25 38 -25 -13 -149 -151 -142 -158 2 -3 17 6
33 19 32 27 144 100 144 94 0 -2 -7 -18 -16 -36 -16 -31 -15 -33 27 -103 39
-66 43 -70 56 -52 7 10 16 35 20 56 6 43 9 44 49 23 36 -19 58 -19 51 -1 -3 7
-9 35 -13 61 -9 61 -53 115 -95 115 -24 0 -29 4 -29 26 0 18 4 23 13 17 20
-12 -51 73 -88 106 -20 17 -51 38 -70 46 -19 7 -35 18 -35 23 0 6 -7 12 -15
16 -8 3 -15 3 -15 -1z m143 -110 c20 -22 41 -54 46 -71 12 -40 6 -41 -14 -3
-11 22 -20 28 -35 24 -14 -4 -21 1 -25 13 -3 11 -14 36 -25 56 -16 33 -16 37
-2 29 10 -5 34 -27 55 -48z m144 -169 c21 -23 49 -101 40 -110 -2 -3 -18 3
-36 13 -21 12 -33 28 -37 51 -11 59 -19 41 -19 -43 0 -110 -12 -120 -54 -50
l-34 56 18 39 c23 51 45 71 45 42 0 -12 -4 -24 -10 -27 -5 -3 -10 -14 -10 -23
1 -10 9 -3 20 18 10 19 17 43 14 53 -5 16 -2 18 18 12 12 -4 33 -18 45 -31z" />
        <path d="M1090 1500 c-21 -6 -22 -8 -8 -14 9 -4 29 -1 45 8 22 12 24 15 8 15
-11 -1 -31 -4 -45 -9z" />
        <path d="M1840 1366 c0 -14 67 -46 95 -45 17 0 24 3 17 6 -6 2 -10 8 -7 13 2
4 -13 10 -34 14 -22 3 -46 9 -55 12 -9 3 -16 3 -16 0z" />
        <path d="M2012 1250 c-9 -15 -19 -18 -42 -14 -41 9 -38 -9 6 -29 35 -17 35
-17 29 3 -3 11 -2 20 3 20 6 0 13 7 16 16 9 24 2 26 -12 4z" />
        <path d="M1257 1190 c-55 -35 -64 -49 -10 -18 20 12 57 27 82 34 l46 13 -36 0
c-23 1 -51 -9 -82 -29z" />
        <path d="M2120 1192 c0 -4 4 -12 9 -17 5 -6 16 -30 25 -55 8 -25 15 -36 15
-25 1 21 -34 105 -44 105 -3 0 -5 -4 -5 -8z" />
        <path d="M948 1133 c-21 -2 -38 -8 -38 -14 0 -10 70 -2 105 12 18 7 17 8 -5 7
-14 -1 -42 -3 -62 -5z" />
        <path d="M2006 1058 c-10 -48 -65 -136 -75 -120 -4 7 -13 1 -25 -18 l-17 -30
38 25 c21 13 46 32 56 42 20 20 40 85 34 116 -2 17 -5 13 -11 -15z" />
        <path d="M1123 1056 c-23 -12 -42 -24 -43 -28 0 -12 58 13 76 33 9 10 15 18
13 18 -2 -1 -23 -11 -46 -23z" />
        <path d="M1643 1049 c-6 -6 -33 -21 -59 -35 -27 -13 -43 -24 -35 -24 18 0 111
51 111 62 0 11 -4 10 -17 -3z" />
        <path d="M1750 982 c-25 -27 -58 -59 -75 -71 -22 -17 -16 -15 25 7 39 21 61
41 78 71 12 22 21 41 20 41 -2 0 -23 -22 -48 -48z" />
        <path d="M1879 984 c-17 -25 -45 -54 -62 -65 -28 -16 -29 -19 -10 -19 22 0 62
41 96 99 27 47 12 37 -24 -15z" />
        <path d="M1660 1005 c-8 -8 -44 -26 -80 -40 -42 -16 -53 -23 -30 -19 50 9 166
73 135 74 -6 0 -17 -7 -25 -15z" />
        <path d="M1383 971 c-48 -19 -64 -31 -40 -31 9 0 19 5 22 10 3 6 14 10 24 10
10 0 24 7 31 15 7 8 11 15 9 14 -2 -1 -23 -9 -46 -18z" />
        <path d="M1780 950 c-29 -26 -39 -40 -28 -40 17 0 78 55 78 71 0 13 0 13 -50
-31z" />
        <path d="M1880 810 c-19 -11 -41 -19 -49 -20 -16 0 -144 -70 -139 -75 2 -2 33
10 69 28 36 18 85 41 108 51 23 11 44 23 47 28 7 11 4 10 -36 -12z" />
        <path d="M1277 709 c13 -16 93 -63 93 -55 0 2 -24 19 -52 36 -29 18 -47 26
-41 19z" />
        <path d="M1465 680 c-42 -11 -1 -11 50 -1 34 7 35 9 10 9 -16 0 -43 -4 -60 -8z" />
        <path d="M1281 655 c16 -37 34 -62 55 -78 21 -15 18 -10 -11 30 -41 53 -50 63
-44 48z" />
        <path d="M1605 519 c-50 -38 -51 -39 -37 -39 7 0 29 16 50 35 45 42 40 44 -13
4z" />
    </g>
</svg>